<mxfile host="65bd71144e">
    <diagram id="nPJZ4RdiA9PnXjcXY77A" name="第 1 页">
        <mxGraphModel dx="722" dy="385" grid="1" gridSize="10" guides="1" tooltips="1" connect="1" arrows="1" fold="1" page="1" pageScale="1" pageWidth="827" pageHeight="1169" background="none" math="0" shadow="0">
            <root>
                <mxCell id="0"/>
                <mxCell id="1" style="" parent="0"/>
                <mxCell id="8" value="" style="shape=image;verticalLabelPosition=bottom;labelBackgroundColor=#ffffff;verticalAlign=top;aspect=fixed;imageAspect=0;image=data:image/png,iVBORw0KGgoAAAANSUhEUgAAAb0AAACACAYAAACfvbeDAAAgAElEQVR4nO3dfVxTd57o8Y9YY/UwStAaqoYqURedjlHHSEfae9G9NzCK3hXqjLQdsVfQWdAOeuei7tY6iDtVZl5qR2C3QK8PXYutlfallBdmd5WtxY7iVnFaZazR1qg1U8aoQ6o9jOn9IyDPD0LCU77v14s/OOd3zvkmJ8n3/J7O6RccHPwdLej3yECgH9/99V5LRTyin8af79Qqrx5DCCGEeGTw4MFtl9K0o0ynuOARbx9DCCGEpy1ZsuSht9m1a5cXImmfR7rtyEIIIfqEvLfy2l024bkEL0bStke++eabbg1ACCFE73b37t2HKt+decev244shBBCdDFJekIIIXyGJD0huoWW6I072ZlqRunuUIRPUMyp7MxLI3p4d0fSvbp3IMu0LJ6KNsClA/z+X3PbtcmQF4qZFNJoYTu395u0he/HGBl07wbWt5bw5+sdiNnDemJMwtsUzBsySZquhcoZmLBQ0lLRR+MYtSwe/RCVmyXbuPDR0a4MtE8b+PQuJkUEMeBOOedy1lDl3ZlZnpO4g6IFBrhUwJwV7R9AYgozohupJem1NNRlG7A4vRgjClNi/w/Jc00EazWAk5OvxbC+xQ961/Gpmp7/NCOKH/gNDuLxybO6OxzA2zHp8TfnEro6H91ID++6K81OYmvOXt5/rX2jvpTRZpL+6XX2HiiiqKjm78BeXv+nJMyju79epV+6maQwLTjK2P73m1pOeACTnkYfAPhpCJw2m4EejmXgU9sYn3SQJ6Z5eMc93iwCpgUx0A/8Aow8NsnDu380Dt0LuzD+fL3Hz1lHlaSnU3BJBa2JpF8noPfisYLjM0h/Ibwm4fUsvS7p3fnXKH6/seav0PpQ21Z9Uo7TBa5vbvDV2Z5xxezdmMahhOoJ8O95H7yHYphI6Ggtmv5tF1XML5PzzylET9WjHVRvxSAt+qnRpKyN81qY7TImgdR5BjQ4KNud0fbV9rmPsN0CXCo3PznCtx4OZ+C4iQwbrul9PwSddpRbn9zgWxe4bpXz9TkP7z5wEo+FBDFI05O+exXkrcmm7DZoxkeTutRbaW8Kz80chwZwWg+ybUUMkQt6Ri0Purt5s4u5zq3hD57+cHdST4yp94rm5cSZaPuDerWEPW8e4OgxKw5AO34ms+Y+S2xQd8anEPPzSAwacJ7IZUN72pfu5XPtd/lc835wPufbj5Zw+qPujqKLOS1kvDOLXYlGDFFJxOxbR4HHmzlN6EcA6nkObsii2KvNqA/P9y7wRN8128Q4BcCGZVUGBTUJD8Dx+XEKtq/m+bXt7wPxuDHxRE5WQK3g0G97yGWv8DnO97I5ehVQjEQu8WIj572/8GUPS3jQWk1vZDpPJpgYcCaH08UOAmKWMTZEy8BHwPVXB/Z/z+HLk/Wb42ahe2kNYwOcXM6Lxd5oQIZ7AErz66oqL0JAHI9Fzyd4jJYBfuCqsvHlB5nY/1jeuVdY8zr8GyxsPo6GtAycsprRM40EBmro7weuvzq5U3GEy4VZfKt2YUw15fud2sYfPlR47O8W1r1PqgP7v2fy5anSmsKJjH0lFl2DHSiMTShmbHuP125aIpLXE/90CLqhLTTjNOlsr9kmIhRdbfea005FyW7Ss0oeJKmIDftJDWvU/xYSQ1FRTBv7B9Cg0QMVbb+ChMwiYkLA+t4cVjYaC1UbQ926BHYUxWC4VMDCg4FkLo9ANwicp/JYsuUGiVtWYQ5RwGmlYP1K8hod3xQXjh5wfnaEPa3+GNR+lxourTq5hU+Lm2kCf6jPR/P71kUXo4tuuMxeGMXlT1qLsy1aTAviifmxiYmP1zVPq7ftXPqo4fnuMrWD5xqwcm5jMndaKf91USzWK0vQL5hN0GMK/f3gfpWNK4VbsV843/K+A0xMfaW44bJbZZz+3fpON1U7v76IMnkRq34+j+n6mvfXaaPs3Wwy3i6n5Y+Yjd3HKjDHhaKfHoeRDDr5K9urtFnTGzjibxmbsobQCe6EB+D3iJbHo9YQOsvkkSD6jZjPhGXxGELcX1QAP389Y3+azhOTumHggV84gUt2M3W+iceGuxMegN8jCgFPzmP87O4ZBKOMi2NC0rKG75NGy+Nz1jB2mje7pZuNBvOGTFLnhrac8JoIJSFzp3ub+qdV0RE6N5WdmQmEdiakI2VcdALoMKfvIClC25m9tcxvEulJ7oQHoEyP5OV/qEl4AIqB6GWLGm1kZNYELaBy8VShV8LqWZ8PYHYKqYlmjI36YzVD3ec7c0Pvma4xZHoWP1g2j1E65cHvQX9/PWMXbeq+QWK6+WRuXMzMMfXeX0WPKT6N9LjW31nnmye5pAK6iURO9XqkPUrbfXojDehcKjdP5nP5SD7Vf9UzKCqDH0zXEhD2HP7/WUaVq3NBKGMmoricfFWcg+3UYVyPmAj4yXpCQzQ8HrGa6+fSqe7ozq+v59ONtf80f5XbKBoGRq1mQrAGXE7slhy+PHMYlwr4hzN4ynM83tm+6YeOqUZAEIHUOxfUvU+6qc/y5SfbcJHL5Y25XG6wb0/U6hqZmkxcmBZwYv0gl4xdFmxOBb05ntTEaAyKivXASla+YXuwiSl1DTEhGlR7Gfty8jj0sQ0nWgxRcaQsjcYQEs2yn+Wz+k0nJWkL60Y1tnuIdiGbcieRmRSBTjEQnbqX6EQbZUcOkLfPgs1TTS1jQglVrRSsXovmpf1Ej9FjnAqOE9tZ8eksdi41onl8IhFQb2SmCb0OUC9R/l5bBziK/XdHsdf8NzDqAFNntCM9tOvz0XDftVOAOl+ra041N+0VlB58l0PHjmOtBIYbML+QSpJZjzZsHnFY6NIG50+S+f2D19lcq0jzBo4IYqDLib04hy9PHcalmcfjCck8EagwcnoM9oMFDfdd25rjoVpdc5QxoSj3633/BplI+tU/Eh2iIfTHqzDlb6Ksxa0PcfH6YkLH6NBPA057MLAn/N2tWPer6UyDmLe03afncmB7Zw0XivOpVgGXjbtFOXx5C9AYGDrGA1Hcs3EhZzFfnjyMywWoZdx66xB2FzDcwPce9cAx2svvOUZOUwAntrcWc/lkTcIDqCrlm4+SsR7prpGfKvbCeudCLePW0ZpmDCWQAV0ZilZxf7CvHuWVrNqE4sRmyeaVEhugIWh0/aaeaGJMOrhbzp4VG9j3sa2m+cWBtTiblW+Vo6IhZOq8ToXltGTwYkIGhZ/Zcd4HtHpMsSm8vm8vO5Ij8FTdz34ki7wKJ+fsNZn0dhm5aRYcDrX5C7TZeoIA7v6FGx6Koake9PkAOLKJ5S+uZvt7NQkPoNKKZXs+5bcBAgl6pquD6iCXg8s7a34PXMC9Q3z1e/cF3cAhw7onJtWG5ddLWFn7/assI3tNIVaA4QbCW/1trvvsBo6c6bGQlFHhxC0NIwhwXjlDaZtbdL22a3p3LlJZ22b9wFHu/mkNBGjQtKeG0pbrJ7n5p0aX4a5zfHMrFgK/x4BAoKsmbYdOYrgfcO0jvrrUw3phb5Vz/ZNG5+LaFaowdX0zkcNJFaCMnsXG5IsNa3oR7qa0qrv1emymTiJIATCSsL+IFmfcaYMxQuf6GCpLyP6/JWQresyLEoj9Hyb0Q7UY5qayc+I41q7Ia093XytslL3RcA/2j/Nan29X68+29pXriJ70+QBAwfjTVSREGdEPV5qZcqJhQJdn4g764gj2a41+D67foAp9o775LnS1jO0fN4rJeQ67IwaD1h9tCPBF27vR+HlgWkVEOgW/mPHgc+a8dpSc3xzs/H69oMOjN7+95e2EUMrdW14+RHMe1dAf4NsqOtlq27edzuLAaSegYJibwuv7iygq2s/rKdEYFMBRRn5WvdRVWzPsSk4bljc2sDxuIesOWlEBTUgMq5I727+lojb6+FfdtTVf1IdFrMvh1fiZGHTNJTzhHce50eWjg3qXDs7TUxg0oian/7V95f0eOr1GogwHUNt5DA/zxNVPX6ZEEj5BAacdm6pFX3vnBdWB7fRhdv92D8ebuy66XUZG3Abv1Xaa5aT8X9ZSMGEvi0I16CdEQjt6krzyQz1M36ivr49SFjM/zN2Y7PisgN2v5WO5WvuBiCAtPxXT0O4Lr+8yox8GoFLdzoEQqssDPW8l64kpAWVUFMvWJRM1ahbL/u85in/V82p7HUt6/ksYNhLgBneuNF3t16/h//2nZWB42L6/kNmMGAJ8c4U7f+pQlB1z6Qq3MBAQbCLQH25WdeGxvajxOeks/ZJIjArYDq5g+b+0o9Z/5Dy2l0yEDh3H02FQcqIDB/XT4O5t7Rz17s0myzT9G+5ZMacRP92DjYIn7NwElKGBjKPnJT0/P0+8s/WEGdBrAGyU/iqv4Z1nlEB61I1KvKmLZ0IrC2YxaShw9wrnjrVedlyg+/N98/pxjx3fea2Ybb+ZyJTtUQQFTyGcgz2uX6/tU6IJZJCudkCCFr/gZMYmzOMxDVRfKMXxoAnyItXuHnNGzkpmgAbwMzI4ahdTog2td6L7BzFoSE2Tk5+eAZPSmfCskUFA1ZliHu7xhJ106yB/ugb4BTHu57vQTQqvq/Q9Gs7gp7MwdNOUhYdXd05Gz0vHP9BzQ/gNwwMB0E1LxDzViPH7+jb6jQ5x8pIKaJm5bievLjVjaO/d3iur3KPAxsxic7IZfQsHili/k72/SWVRlLHBvrXjZ7JoQyYxoRpA5VL54Qfrbla5r3L1z6QSPVrBPY9wB7tSTB4b9AKA8ww2B4AewwJP7rhzqu+4X/9j/y2DgFEenNZQ0+cLOiYuqXkvhxswL32VnXsSMA5qbWM9izbvd98zdf8OEjo1j6Wb3LzpHrE5xMjYOXHu30NPGxKEufZ7p+iZGZdGZrwRBXCcOUxBqxvHYBgNYMf6Hx6O68sq97nvP4CeeG3Tdk1vsIHQ5VlNFrtulnO+MLdev5eNW2VWqkcZGBAyjx+urTcK794N7H8ORDeqhWOMCMeYEt5kcfWVw/yxwUjJFoYYh8Ty1CuxNf80nGja/HDvhpO1G076Pc/Ntw9gT4pFNziIsc+ubzSpG6pOtvA62unhY+qoeudkhIknV+TXW9e5aQwlx8pJDJuJdrSZlH8yN1mv3rZR/n79SbJO9uUUMCN9EaGKDmNsCjtiUxpt5aTstwvZcKTR4vcOc+pZIzO1Nf2Hc+ttV38ag58/2u9HsPj7ESxuIW7H2T3k5NdVOwosp4idPBOt1kRSzn6S6sVivaRiCPFU6jvORxeczAxTGDc9Gt5rZa5eszcvAP8Za3hqxhr3Px4aCn/3VBlVk8Px9zcQurTh7PxOTWM4fZDy6xGYR2owzE1j79z6K1VUVdNKbc+I0dBwzmPe6n0dDKShZp/SgoFJ9SaQe2T6xr13sV+YxbAJGgKmx/PD6fF16zw1jWH4TFJ+M5PG3yL1qoWsrW20Jcw1MW4QYD/P0XYMdulLHrryff+eg68/2s1/Za/hm0ZNf66zqZwtsnKntonYpXLnUilnc5K5fq2ZBuYLxVSctHLrjkp1vVEj1XducK14C/+1a1uD5V2mKpfL27dw7qSNO/d4kNhdqoOvTx7g826bsvDwXGdTOfN2KV9Xqtz35Ht54gjltQlTVVHvNuwX0Ax1T5LdnFjvMr1iD6uXbGLfCRuOh6q+l7DpFzXTEFrpfij57SayPyjDanei3q+3QlVxXC2ncPtylq0taDhy88gm0t8oazCHz2mvoDBjGSvLmzaDdkZJcTkOQPl+JAmemOrjCdfT+TT3ENfsTg9/1yrYvjaDws8ddefivorji+PsWfs8hVdb27aQjF11dxSpnfPYu9i48856zn7U8DfEI44dpvCEFftttcHnXL1tp+KDDF5ctr35/vQH9CT8eCIKYDuV71N3YwHoFxwc/F2za7pgcqXorRRiNu8iYbKCeqmgyRQAZbSZ5F8lETFSA/YS1r3oW7c5apnCoq17WRyqwXlqO0tesXiyF62PMZOWn+Ie7HKpgIUr8uS98hDFnMauFBOKs5zshevo7P2BkpKS2PHGjnpLEsl671nG3TnJ5vj1NK4irFy6kuzs7E4etePkhtOiAyIxjVcAlfNHm855c161kH9Wxk035WRfjgWbCsr0eFLNveUmXF1LO95M0muJNaM7VSpK8yXheYpiJjXehIJKRcGmTie8Vj36Pbr1oSYtkKQnOkHDxMhUYp4x1A36qBmssHG2u+fVceGo1PLqq8hm2wdWVLSYkjb3zkEaXhNBWn4Re19LIXq8+4LA8XE26/Ml5XlGKAlbkjBpwXl2jxff13PYHYBmIgs3JxI+qmdd3PnU8/SEpxRw+FQsxme0aEZHkLAugoR1zRSrPM7u37V89z9fVZG7luyROaSEGYhZ/zIXn2/j6em+5r6K46vzlL6VQXaJtBh4SsT69cSEaMBRRm56gRdrz6XsP3YR0/xxKH/zLK9kPgs4Oflaz3iQrCQ90SElry7D8Vki8QvCCal/i6n7KuodO+VH8tn+Rjc8OqZXcGJJSydo63pMFw61clNgX1PChrge8KvYR5WduIhjPOz++w205/nFnXF+Zyrr76wlef4Ugof0rIkLLQ9kEUIIIdrQdCBL67p7IMsjgwcP7raDCyGE6P0GDWr1bgNNdGfekeZNIYQQnZLwXIvPTelxmm3ejImJ4cMPP6SysrK5bYQQQoheSaYsCCGE8BmS9IQQQvgMSXpCCCF8hiQ9IYQQPkOSnhBCCJ/hU0nPb9IWfvByMTN+uavmye9C9ECJO9wPUM3sPcPAhegtfCrp+U8zoviB3+AgHp/s6aef6/E35xK6Oh+dJFQhhOiRfCrpVX1SjtMFrm9u8NVZTz8IdhxKqJ4A/551nzkhhBB1fOqOLK5za/jDue6OQgghRHfxqZqeEJ6WkFlEUVEROxK7OxIhRHv0/ZreyHSeTDDh32Chk8t5sdivN1N+WhZPRRv4uigW65Ul6BfMJugxhf5+cL/KxpXCrdgvnK8pnMjYV2LRNdiBwtiEYsa293jtEkFafiqmoVYK5qzkQEQSGxPNGLTuplTVYcWSuZbsjxs9L0QxsuilJOaF6akpiuqwcepgNtveLm/meVoKxp+uIiHKiL72cUH3VRy2co6+s528XvFsMy2mBfHE/NjExMe1Dx55pN62c+mj3aRn9Z7HHTm/vogyeRGrfj6P6fqa1+K0UfZuNhnNnj9gzCJefXUxxqEq1vfWsjK38XPthfBtUtNrwZDpWfxg2TxG6dwJD6C/v56xizZ140AVDfrUnexMjX6Q8AA0WgPRazaTMKZeUcVMWs6rLH6mLuG5y+qZGf8qORvMNH6esemXmbwaPxODrt7z8fpr0I4xEbM8hQhvvSxPmp1CaqIZ4+i6hAegGaojdG4qmc287h5LN5/MjYuZOabea1H0mOLTSI9r4VX8z3CMQwE0GGbH9Y5zJkQX6vs1vevr+XRj7T+z0L20hrEBbW82cEQQA11O7MU5fHnqMC7NPB5PSOaJQIWR02OwHywAcrm8MZfLDfbd2Vpda/SYIoDbVgp3bye/2Io6eREvr1uMcaiB8Pl68n5nAxQWpSdh0oLz80JyM/OxfO4ARc/M+Qkk/tSELiyeVWEWNp2o3XcMMT/SAU7K39xG9sHj2JygjA4lPDKe2LDqTsaewI6iGAxtFbtUwJwVeZ04TjU37RWUHnyXQ8eOY60Ehhswv5BKklmPNmwecVjozBG6ijImFOW+E+sHuWTssmAbZCLpV/9IdIiG0B+vwpS/qekDaP+tlPLZBndN70i+PJFdiEb6ftLrKJeDyzsTsF+raUS6d4ivfj+fJ+boGThkWLeF5TibR/raAh40Wp3dx+GKWIxhCv5aA2CDMfHMCtXAdQvrf5FdV9Zp43j+BmyP7eT1KB2G/26EE+U1KzUMrK1N3DmPreZlO69WYHljHZY3uugFdtaRTSw/0mhZpRXL9nzCw1IxDQ0k6BngWHcE95BUG5Ytq9le22ztLCN7TSET98dgGG4gfAyUfdFomy/2sS5uX5eHKkRvIUmvJV8cqUt4ta7foAp9o/7BruTkoqVewqtRkraw4RX9j8a5+xlHmtlaZG5xb9qgiUBt0jtE8el5hIZpMSbvZf+zFZRZijnwbxZ3banT8lg5pyvqV830SzagYcCAju675dqqYUERRQvqLbhdRkbchs7VtK6W1SW8Ws5z2B0xGLT+aEOAxklPCNEq6dPri/wH8PCzBZ1Y0pax6e1yd7OmLpSIn6WwY08R+3duJSlC64VAPS9iXU7Tfsk+5Tg3estIHCF6IKnp9WUP3T/m5PjudRzfDdrxZiIXRBFpCkWnCyU6NZNAv+fZ1LjpsN26oE9PWcz8MHdydnxWwO7X8rFcra0p1Y6A7diu3ZrWVhMyi4gJAet7c1iZ25l9t5cZ/TAAlerOdrMK4YOkpucFfv26OYBTNuwAoyexuINDFR2fW9iXsZoXFz7Pns9UQIvxmR4+FjDMgF4DYKP0V3n1Eh6gBKLpAzfLURbMYtJQ4O4VzvWGfkkhehip6XnMRaqdQIDC6Hnp/OWdrVTd7KZ2qNNHOW+PQKcLZdGuHQS+lc8By/EHg1OaNftldi7RceU/D1HwYRnln7tj1443EVzTsqm61E4E1QV9eg4nVYCCjolLTGizynAMN2D+XwnEzTGiG+Tdw3vckCDM39dT+pkN54ORt0YUwHHmMAXNbfNgnh44Py9g/S/ymvQBC+HL+nzSGxh1gKkzGld3Gk4grzq5hU+LO3svThu3yqxUjzIwYISJJ1fk11vnzWkMzSkjK7+EiUkR6BQD5sSXMTe5Y4h7ontdGhqA/3ADptgUTLHN7PKulaNvHvdm0J13+iDl1yMwj9RgmJvG3rn1V6qoqqZ31faGzyTlNzNJabRYvWoha2sLQ2T04wiuacJVxseQnJjPytzWrnaE8C3SvOlBrrOpnHm7lK8rVe67ujcWpyWDF9dmY/nMjrM9FbQj28nItVBhd6Ler7f8rgPbiQIylq8kr8ePFKxg+9oMCj931L2G+yqOL46zZ+3zFF7t1uDa79hhCk9Ysd9WG5wL9badig8yeHHZdo63lMeObWP3qbqVQSNN3o1ViF6mX3Bw8HeNF8bExPDhhx9SWemRsepCiK5kTmN/igkFsL63UGp6QtTT55s3hfAdWgxRsST/zJ3wUCsofUsSnhD1SdIToi+Yncb+X5rq7it638Hx7PXsk5wnRAOS9IToS+46sFWUcuCfdzecsiGEACTpCdE3HNnAwg7fOEAI3yGjN4UQQvgMSXpCCCF8hiQ9IYQQPkOSnhBCCJ8hSU8IIYTPkKQnhBDCZ0jSE0II4TMk6QkhhPAZkvSEEEL4DEl6QgghfIYkPY/R42/OJXR1PrqR3R2LEEKI5kjS85hxKKF6Avx706O5hRDCt0jSE0II4TMk6QkhhPAZff/RQtOyeCraQNXJLXxquclg8woMU/QoGnD91Ynjk71cKi7gfuPtdMno/242QY8p9Pdzl71TcYTLhVl8q9YWSmTsK7HoGmyoMDahmLENljm5nBeL/br7vyEvFDMpBOyFUVz+pOFhB0YdYOoMpdG6WeheWsPYACvnNiZzR5fME7GRjAjU0N8PqiutWN9N5dafnA3L+5Vxevtb9J+9mjEz9AzRAC6VOxcP8/k7WVS7OvPGRpCWn4ppqJWCOSs5EJHExkQzBq27eVd1WLFkriX748bPdNMSkbye+IhQdLVPPHXaqSjZTXpWCY4mx1Ew/nQVCVFG9MMVNP2B+yoOWzlH39lOXknTLdz0LNq8lcWTFdTPC1j7izwqOvNyhRB9gu/U9AY/zRMvbWHyDHfCA/B7RGHYjGVMjJrVoGj/aVn8cPk8RuncCa+2bMCT85iaksUQ/y6O/QENyqxd/HD5PB4frnkQ24DhBkL/dwZDHm1UfMgknkjYwuSnaxIegJ+GIRPmMeW5RA+dfA361J3sTI1+kPAANFoD0Ws2kzCmftlQEjJ3kjq3XsIDUHSEzk1lZ2YCoY32bvplJq/Gz8Sgq0l4AP01aMeYiFmeQkSLcUUSPtl9EM34SOJmd+Y1CiH6ir5f06vh/2Q4/i6VmyfzuVxykOp7GgY+s43Js4LwfzKKQcVHuQswbA3j5xgYcO8Glwtz+bqiFJcL8I8kIHoZEyYY+Js58ZS9sxvI5fLGXC4DdbWxhrU6z9LzxDPgumWl4v2t3LpihYA49IvjGRVgQDdNz53jtnrlFQJHQvX1Mv5YsJWqmzBgxiYmRxkYEBJOwKO53LzX+ZhMEcBtK4W7t5NfbEWdvIiX1y3GONRA+Hw9eb9zx2RKXUNMiAbVXsa+nDwOfWzDiRZDVBwpS6MxhESz7Gf5rH6ztnYYQ8yPdICT8je3kX3wODYnKKNDCY+MJzasupW4DlN6NhLDZAX188PkywNWhRD4UNLjno0Lu1K4+aAJ0Mm3x0qpnBWLbrA/A4C7wKAfzSDAT+Xa+8nYL9Rrmqs6zK19Ctd+uQx9yBT82U1VN7yMqjM5nD9Yrzn2Vj5/uvAso2YoDBwyDrA1KF996QBn/jX3Qfnqkwe5PnMVTwz5HgMCAQ8kZ8fZPNLXFtQ1H57dx+GKWIxhCv5aQ01M0cSYdHC3nD0rNlDw4K11YC3OZuUgPe8nGgmZOg/e3FezTsPA2trdnfPYarZxXq3A8sY6LG+0FpWNfWsXsq+1IkIIn+M7Se/6yXoJr1b9mhqAkcGj3U1ioxYdYFSLO9MyMACqbnkj0NY4+fpU0/7Hb4tj+X1x8+WvHsltVP4wzspVMMRzMV20FDTpLytJW0hJ/QVTJxGkABhJ2F9EQku70wZjBMoBOETx6XmEhmkxJu9l/7MVlFmKOfBvFqyVnopfCOFLfKdPr10CeUSm2XmHVuHhu0KdWNKWsentcnezpi6UiJ+lsGNPEft3biUpQuuFQIUQfZnv1PQeijf75drQ1y9DbpeREbehYS2wVU6O717H8d2gHW8mckEUkaZQdCvctNcAAASWSURBVLpQolMzCfR7nk3SXyeEaKe+/hP7kI7ivK4CCsNCTR3ei1+/dpbzUxouGJXO+GlK84V7uyPnsanA0HE8HdaxXTg+t7AvYzUvLnyePZ+pgBbjMy2P3xRCiMYk6TVSdc5KNTDk6fVMiE5kkH97m9AuUu0EUBg9Lx3/wJa3q77jnug37Km1DHpUAbQMnJHFD1404d9nz8ghTl5yJ6qZ63by6lIzhuFtbDL7ZXbu2UHaUjPG8XXvp3a8ieCaf1WX2sLGehZt3k9RURFF+3eQ0HguhBDCJ0nzZmPncvjjuU1MmqQQOC2WwGmxTYpUndzCp8VHGy21cavMSvUoAwNGmHhyRX69dQ2bS++eKqNqcjj+gSaMqQfqirmc2C+p6EL6Yl+Vk305BcxIX0SoosMYm8KO2JQmZcp+u5AND5orB+A/3IApNgVT09MAd60cffN4C8fTM05fU2tWDMSsSCB/RR6NhzIJIXxLn61XdNx5qt5dzOn3y/i6UuX+Q9y1xHU2lTNvl7a93fV0zr9Txp+rwAXggrv281TkJnD53M1Oxt+DVexh9ZJN7Dthw3G3HeWPbCcj10KF3YlafwjqXQe2EwVkLF9J3hctbXycbbvL6pLcMD0db7AWQvQV/YKDg79rvDAmJoYPP/yQykoZFy56MzNp+SmYhgKXClgoNT0hfJ40b4o+STveTOyyeHfCQ6WiNF8SnhBCkp7oa2pvhF23xPFxNuvzJeUJISTpib7qvorjq/OUvpvNbotNanlCCECSnuhzStgQ1/6p70II3yKjN4UQQvgMSXpCCCF8hiQ9IYQQPqPZPr2goCB+8pOftHsn2dnZHgtICCGE8JYWB7LseGNHu3awculKjwUjhBBCeJM0bwohhPAZkvSEEEL4DEl6QgghfIYkPSGEED6j1TuyzPqHAtaaFHCpOL86w/7XN5P/B7mhkxBCiN6pfTU9Pw3KqBkseTmDxL/xckRCCCGEl7Sa9I7+OobIBTEkbt7FGQegGcffLgjvotCEEEIIz2pHTc/JlRP5rHn/DCqgHTHJ60EJIYQQ3tD+gSx3VKq9GIgQQgjhbTJ6UwghhM+QpCeEEMJntD/pOZz8BUAZxhSvhSOEEEJ4T/uTXvk5bjiBEeEkr4hi3DDvBSWEEEJ4w0M0bx5k486jXHFqCP7bVWTlHebw7nRGeS82IYQQwqOkT08IIYTPeIikN59XXpxFsOLkTP5GEl+IJDJ+Pde8F5sQQgjhUa3ee7MB4ySCFOCrY2S9U8oV78UkhBBCeEX7a3pahe8B3KuShCeEEKJXkj49IYQQPkOSnhBCCJ8hSU8IIYTPaH/SG6JhgBcDEUIIIbytHaM3FYLD5pP8d1PQAM7Ki14PSgghhPCGVpPerH8oYK1JqVvgusJ/HDjq7ZiEEEIIr2jfPD2XirPSyn/8v38k649ejkgIIYTwklaT3tFfxyD1OiGEEH2FjN4UQgjhM1qs6a1curIr4xBCCCG8rl9wcPB33R2EEEII0RWkeVMIIYTPkKQnhBDCZ0jSE0II4TMk6QkhhPAZkvSEEEL4DEl6QgghfMb/Bzxqj8fXtyjFAAAAAElFTkSuQmCC;rounded=0;" parent="1" vertex="1">
                    <mxGeometry y="300" width="292.02" height="84" as="geometry"/>
                </mxCell>
                <mxCell id="2" value="&lt;blockquote style=&quot;margin: 0 0 0 40px ; border: none ; padding: 0px&quot;&gt;&lt;pre style=&quot;font-size: 13px&quot;&gt;&lt;font style=&quot;font-size: 15px&quot; face=&quot;Verdana&quot;&gt;&lt;b&gt;&lt;font style=&quot;font-size: 15px&quot;&gt;JVM内存&lt;br&gt;&lt;/font&gt;&lt;font style=&quot;font-size: 15px&quot;&gt;方法的调用机制分析&lt;/font&gt;&lt;/b&gt;&lt;/font&gt;&lt;/pre&gt;&lt;/blockquote&gt;" style="rounded=0;whiteSpace=wrap;html=1;fillColor=#6d8764;strokeColor=#3A5431;fontColor=#ffffff;align=center;verticalAlign=top;labelPosition=center;verticalLabelPosition=middle;horizontal=1;" parent="1" vertex="1">
                    <mxGeometry x="270.42" y="120" width="759.58" height="520" as="geometry"/>
                </mxCell>
                <mxCell id="6" value="&lt;h2&gt;栈&lt;/h2&gt;" style="rounded=0;whiteSpace=wrap;html=1;fillColor=#647687;strokeColor=#0F0F0F;fontColor=#ffffff;align=center;labelPosition=center;verticalLabelPosition=middle;verticalAlign=top;" parent="1" vertex="1">
                    <mxGeometry x="300" y="190" width="270" height="420" as="geometry"/>
                </mxCell>
                <mxCell id="7" value="" style="shape=image;verticalLabelPosition=bottom;labelBackgroundColor=#ffffff;verticalAlign=top;aspect=fixed;imageAspect=0;image=data:image/png,iVBORw0KGgoAAAANSUhEUgAAAW8AAABfCAYAAAAnMUYNAAAgAElEQVR4nO29f1xUdb74/7z+GLND4BA1RI4hozaY62Tr6A2yRazBFL2JeRdqAyvQFrPQb5d0V+JDuFea7YsUwqbgmnQN7pLYVWRl9qbsdaG18bs6XdMpHTVHzSlj1DhSY/L5/jEDDDD8HkD0PB8PHw855/3rnHmf13md1/v1fr3+acyYMf8XCQkJCYlBxZCBHoCEhISERPeRhLeEhITEIEQS3hISEhKDEEl4S0hISAxCJOEtISHhZeREv7GFLak6BI/n1cRnbyP3RU075yW6giS8JSQkvIiALn0DyVMVKCZNQ+upSPAjaEPkqOZnkJWk7u8B3jT8U3ddBX1/tYeJIa0ONsCPdRe4eHA752t2cb3BiyOUkOhvIjMofVXbVit0OLCfN7HvTzkUVtkHYmQ3PMoXcsldqEJmN5KzJB2D6LmcoMtgU4oWOXZq3nqGtXv7d5w3A97RvIfACN9A7o1cxs9fTGOEpM9L3IzIZMiDtcSkbiFX0hjbEpxI6jwVMuwYt+rbFdwAoiGdzJ1WHMgJe2ENEf03ypuGHotZW/ls/v6G658+kyOfXuDHBhgSEI56zjxvjlFCYmC4bEQ/Zw5z5sxhzpxnWP5OOZbLADJUC1aQHDzQA7yREIh5MQqVDMQDBaR3JLldmN9dT9V5QB5GwsvSy7C7eEdH/qGauj2LOVLj/JQcOSkSH680LCFxo2DHsief5YklmB0ASrT/qhnoQd04BCcQNVkAh5ldb1V1sZKZnB0mREAxI4HovhzfTcgwbzZ2zXyCuke0+Mhkbd8KimUon4wk8C6BoUOg4SeRK+a9nCrP40dHy6IjZm9nyjQBW/lsTh2ZyaiYJYwNkTNiGDQ47Nj+ewNfHaxuWWmIhtsjljBmshJfX2f/DQ473x3ey9m9BW36ABg6ZgVBTzzSNCYaHIjfWrB+9AaXbO42zZkoXn6NsUOMHMr5gKGRKwmepsRX5qxz5UQlx/+Ux7Xe2PpddtbhnxXy5Fu1JKcloQuRIxsKXLdj2VPA63lV3OiWVueaiBXz2hTEh9aiejQUXx8Y0gD1Z40c/zCNq3UeKo6K467o+YwJljPc9VtcOW3kdHk2Vy+5tLigTCYlavE5vYu/F+W1P4iH8vjnaBXiwfX8b0Wldy9QLOLo2VjUIeAzUt7qpJyIZWkkRKhRNBrMRRvmqq1ktvntEsmtiEF12Yg+To/9l6kkP6lB6SdzVjtrpDg7nTJzqy4CIkheEUe4Wol8pFsf1dvZWlCOqbXCK4QR/2oCUVOUyGWuY/V2rAd3kf9OScvyrjnIwRwWfeDDmpcXMlXpmoMOO5Y9eax6twZPOrU2LhwlIH6+l6LOle5mdpdh+qWGsIBQIuOgvLiDssGxrFsXj8bPgWXHKpYXtL45txb9Yp0e+lAeP186j3sVLiEJDBkmMGrSPKak5OHbjpo+JPA1JqS8hnqCU3ADDJHJuWfOa4x9SOlWUsudz7/J5EdUjPJtfnEMkcm5a9pCxkfObNWywIjHivn54qgWY2KIDEERijppK2MfCm07IN+J3Jf4JpMfcQluVx3fCfN48Okkr9xMWcBMcgtTiR7vemgAhspRzU0lO9Xj2v0NiILA54uYMieUUT6uSTYERo7RMvn5TEa0Ln5vJpNeSkAV4hLc4LyvIeFMfqkQxb0uSXjhAvUAowLbtuHGiLsDAfjh0lEvXlNnqEncsIXUuW6CG0BQoJ6bypYNiXg2DMh4JPs91iVomwQ3gDBaS2J6RktbsBBL9sZUoqe4Ce7GPnTJJD7dekiJ5BatIXa6m+AGGClHOSOedX9Yg86Dr54wPo4tWYmEBbvNQZkc1fxUspKUbSugYeYEOeDgxMFyj1fZPkZ2HbEBMkK0sR0XfTwcjR+ADFVk3C1vJ/eq5j1i8kSnueSbM81v5ztfY/wcFcN/uMCp8gK+NVfT0AD4RDEqegkTJqi4f04Cxj9tbdPeXVNnQoPI13s2YT1cScNPGm5/8nUmTxJQTHmKr/6xngaAkKcYEwRcMnFk2wbqvrMCAkN8H8Hn0adQtNa6g19HHSZnCA5qPy3m1N5irjkA/xjuil7M2GAZCt0Svj28groW2rSAfxBcO2/ki7Js6mph+LS1TJ6tYnhIOKNuK6D2h17exCAVKhzYDpSQn1eCsV5J9GtZJE+VowiLI14wdk+zcSNxQwUxrT2F2mChbM5yCnvWhQsZo4JkNFyxYC7N4tK5WoaErGLi01p8RmkICIFzJ11Fh8Rx3zNafBCx7dnEV4craXAAt4XjE5HE/dMCGfsvK6nNz+Raw9f8cBXw9WcE8GM7vQ/3GQ44uHrB2qur8EhwIprRAA6sXzabB7SprxETIsNhM1KyqZBdn1gRkaOaHUfKC9GoQqJZ8mwxK99v9eP5aQjzA8d5IyWbnfVkEalkp0Sg8NMQtQCqdjiLKl+IQj0SHOeryH+zAMNxOyBHNWMm855ayJgWc1VJ8soYVCMB0UJ5gZ6tBiuioEQXu4KEJ9XIA8JIeFmLYZ2x1ZgUKNznIFqS/89viQ6RoZq+EGVBDi3vrBalAnCcxLSj+7fUdPgMYoQCQTGOMKCmvYJ/qcYUqXJq3nuL6apx5mbFO5q3TxS+0e8xaZoAOPj6fzZw3XVq5MPTGDXEwbmPlmE76hLcAHWVXCrZxrmrMDTkQY828oZaE5/lLOSrT10PdIOJq38/Sh2A4M/wxoK3yZreQte/b5xWIg1XKrlSnsTxvftaDndqKCOBuoN5fLnHJbgBasv4tmg9X10CZKHc9WBbteTaye0cLkyjrtYO2Ln26U7OXwG4g+H+3bxvHrFj2ryK5zJKMF4ERCvlrxdgvAzIQgjVeaOPvqeh1ojpnWVcOmcFRBpOZnH2DIAM2ajmckOmRaK4DWqr1nCq8XcG1zpKGqfOAQEqfEcBGKm3A0NkDGmcuSFvMuX1PUya3fx1NeQ2GVDLD7VevCBBSdiCFHJ/H4NKBthqKG76xI8mRquAehNFL6VT8onVpby47OQfmHAgI2SKp4V8B9Y9a3kmsbmevUpP9VkAGT4BzSX9b2usUoftfKMRxo5lfxk5rzzDys1uzU6JQzsacFgpT1tOvsE1JtGKYfNKVu204ADkk6M9aLBOs0TTHLxoJH+n0zaNIEfVunikkkCA+u+50IVb2QaD1VlPrmBiR+VOl7A6bg5z5jx5y5tMoBeatyJ6D4o2KwwOavfn8dXRRu1Cw+2jnQLw3tjt3Ntua3JGjIK6Sy2PXj2xp6199HwaR95odcy8hzO1oYz116BJ3c6lo59y9uCH1J2xeOhrJkKQDLjA1zWe7KH7qD26hLFhcoS7pwHugl/k7N6CpheTk0rEiyvAt92L6x6XT1C5vfXErML6TSpav5YPc3cpfGlOLzXqrvNtTRo/ttAEReq/ESG45Qvx9tEKhgD+kev558j2WvPHJwi+u2TFcdkB9/ozIhA4DyMnjmMEMGJCJCP27ONHZjLSH3DY+fFSe+11ET8tqRUVpLY+LpopeVNPk746ZSKBAoCGxNIKEttrTz4GDWBqcdCK8Z22dmRPv5VpZzWWsBhUwdGsKwnHerCaSsMuKpteFm5MVeJUhveR70HOWQtMWBeoUPn5Mw5aarGXTWxvLRwNVi6kaNsKbne+s97y2nB/4hWzScNPDurOmDj7l2yutFjo82eYrN1q3qOhElt+HfVzFjP2QSWjJs1k1CSnyeXS0daLouO4fRSAyLV2Hu5rtbVA68WogeVErQg34WZip5bcdeq/qwUCuT0AOD8T3xCBSyctjAyZiH8wfH06kNtuB+pq2zWr9BTHZRsnD3hYGJQL/eNdZS5k+aoLpPw6Dt14Ocrp0SROjybxuh1rTcsFyIggp93/2uX2dOET1F4GlV9/DFyiL+ix8LaVz+bUP7paWuRU4UJs53vaWxdoqOZKeTWmcjlDxszmzqlRBE0MZNSkeWiC/DFtyHQ9zGf44QrgKzB8FOBBgA/394r9w4sITGxcBeuFR0v/2by7T1fn0/XvRBqAYT5KCIrkrlF2bNv+xu1JCdw9aR5fn/ZhiAwaLl7gWm8HddmIPi6969pkd8v3BHM5Oa+UkyMoCdPNI+rxcLTBzgXIjEAflr9SiBUw2moBgeF+ge00NA5/bwvuO5VEgKR99xN97G2yD/G8AxC4U91fnhJ2Gs4U823ZYkz6rZy7CkP8H2RUUOP5o/z4PUAgioc8jGlIFAETnSvn35/Z1/b8QKBOQBMEYMPa5Rfm4EA859QMA8YldK3ChQtcBUb4jmO4ehw+l05w5btivjvhYOSERxgZNAYBuHrpRJ+NuQ17j2F1AH7jeGR6P/UpWqnZkU968jMsWlWFDZCN1xDVeNpWiwOQhUwj3sMHm/pFLUoAmxVj29Pd44CNWgCXCabbzAjEH8Buoz/9gwY7XvU28UTdUQvXJobi+0gaE27fhbXqQ+rrvOutPOKx9xgbYOV8zYfUXTC5Fr3kDAkcw23DABzwU2NpK5cOWbh+rwrfsDRUjrzmhTL/OBQxcdw3Crhk4sJAzCSZP+NmqDDtt2B381ZQysBxvJriQz1vuj9t3l3l+mfHuBQeyCh1HD+L9cfylw+5+l0HXiLfXHBu6giIxN9fTt2Xe/kR+PGohesTQ7n7IQsjgYvf9OeLdxefnoxFrZYTtnoL63YVU/hfBiwXvdtL4tulaOuqqdyzB+M/zFhFQFCieUDe1myzoxLTv2rQ+qmJ/cM6HH/Id3rACEp0i1NJmqtEhgNLTXErG3wPEA9jtUejlCtRLQC66XGinKJCDjisR9v3NAE3P28Qj5eR9koht/KyZZ8Lb45u4ouja5k4UcD/oYX4P7SwTZG6T9/kyJ5ePGzD7mDUBC2jJnjW7n/8ci/fftP8d8M/NvDFxDeZGCLjrsgV3BW5omWFHy5wfHuW122mXWKkipjVucSsbnXcbqLoD4X0gfPbwPLdBk5VhzJpRiDChCgmT4hqW+bkdv7+HwWuP05w9RIQomUsIqc+c82bo5/yjSOUex4KBUSu9sjtoaeIlGwqY1pmLGpBgWZhCrkLU9qUMb61iPTeBGAaKqCcoiNxis7joqh9/3a3l3MV+i0zncGfAjTEp20kvvWIzGXkFXhjRtXwty9FwqYLjJsaDTu64+utZN4kBeDgpKmsk6LjGOMy9QjjY1iWVMzygh76zd4E9MMmnWPUfRjPoY+MfHvR0ScRB3/cm8Vne49x6Ypb+w3w40Urp3a+yaGSglam4mNc+Y8EDu1x1mmq4hC5dGQXh3IW8925G2RS1Nux7i9i9ZLVbXfb3RSI/LhvMYffq+ScTezCLtVPm71ILh3lUtM6itN04qSWH/tVeAPmIlYuXkvJASv2+r7pojgrh7IDVuz1bhsXrjsQbWYM765mybqW1mbRkM6SVUXUnLbjcHORctit1GxdzeKVRV7TXKv2mLADwgNRJHYn5ktkIjNHA+Ix9na0uxJg/3q2Hmx+LgODBsumtb6h2yFhJfqIxjCk/bHoJSHhdQRis7cRr5YhHsxh8esGj9voW6ImOT+L6GAZ1t1LWZrXha8AXQalKc5wvZYdiyTNW0JCQqJ3iJRsMmB1gDA1gVRP++5boU5ahi5YBrYqCjsV3HJUsxPJTnDFWXeYqf7g1hXcIAlvCQkJb2HOZ/1uCw7kaJOzSOwgyqugyyBtgQoZNgzuG548EZlBacU2cl+OQS0HrtupyU+j5NaW3ZLwlpCQ8B7mglXkH7CDTEVMWjtJFoITyUrWIseBZceb5HTV8F5vx3qonJxfL2FtF+KF3+z0vbeJhITELYSIISOTwOw0tF/u8qxRn/4bprNRYErrWoySveksktKktUFasJSQkJAYhEhmEwkJCYlBiCS8JSQkJAYhw26//faBHoOEhISERDeRNG8JCQmJQciwq1evDvQYJCQkJCS6iaR5S0hISAxCJOEtISEhMQiRhLeExKBGTvQbW9iSqrsJk+T1J2ris7eR+6Jm0NzHXgnvIRPf5Gdr9jDt1fe4M6jz8hISEt5EQJe+geSpChSTpnFrB0jtJcGPoA2Ro5qfQVZSB0FZbiB6tcPS91d7mOjKidjrhAptUOKje53Rk3ywl8T1bf5LiVuDyGSyY8MJqd/Hk690llNIQKlLIPmpcELvkSMb6jzqsFs5VrOd/PcMzkw2A4jyhVxyF6qQ2Y3kLEmn3XAfASoeWzqbxx+6D9+hcMW4kdd+Z2m33eGTtMQmzUI72p/hQ4Hr9Vz4soaS/7eSL7ycHairjHw0iqXP/4KQUcMYDnCtllOffkxRvpELHq97JPcvjSP20XEECs4oINcufYWxvJSSD7/xmN9U0GU4k1dgp+atZ1h7g2/J75XmXfcPE2IDNFy9wNefeTvt1DgEtZJRPv2Rfl7ilkAVinp0syBuHwFd2iY2pkSjaVVeJleimZtC6tN9OdAuEJxI6jwVMuwYt+o9Cu6RDz3Ms2+n8U7hUhZqnYK7M4bPepq1axcRdp9LcAMMHUlg6CxS/rCMJyZ49Sq6wDAeWPkqb66cxf2NghtguD9jwxfxm7WzuLNNHX+eWJ9GyhPqJsENMHzUfYT96lXW/lbd3I4boiGdzJ1WHMgJe6GdoFo3EL0KTNVw9DX+V8oYKnGzMXcNSQ87k1Bbq4rYumMfNcftgBzVjJnMm78QRR9khOo6AjEvRqGSgXiggHSPKncQ//LiAsLuBq5/zxeGv1IfHs2Dvh01+yDPP/8gvkD9V//DZv0ePj8HvrPCePbZaCaNuo8nfj2L6hUfc6VvLqwtobN56tG7GU49p/5czLv/YeYKd/DA8y+wdFYQw8fO4tmn/0rOB01Jarkz+Xnmjx0G12s5/J9FFP3pPPUBQWjj/5VnHw3CV7uIZyMy+aOHjCfmd9dTNTUbXVAYCS+rqXrnxk1fJS1YSki0ImLqOOei1WkDK/VlLsENYMeyv4ycf3uG1ZsHcIDBCURNFsBhZtdb7eVcOk/F4fNcOfExOUszydl4zqOpwB3fX0XwoABcOczGV8r5/NxPwE9c+fh/yPv3SqzXYPjYKTw+xruX0yHH9vDhAQvGjVnoN5q5IgLi93yeu5m/fg0wjDGhk9wqTOKp8LuBnzi1O4+NfzpPPcDF8xizN7DxH98DdzBp1oPtdGgmZ4fJmeR6RgLRfXltvaT7mndQJpMSta2yVYucKlzo2S79UB7/HK3i24qFWM4sRrkgksC7BIYOget1Vs6UZ2P78pircBJjX1+IokUDAmMT9zC2q/11A3lEMqlPt7RpijYz1Tu2UrDT5JbGKYKM4lS0fp6TyCZuqCAmxO2cK6UZB/SknZxP5r+qEYY6sO7+HUs/VrLuN4loAoCLNeT8em37tsoBx3XdMhOFC/XULnuDpEgV8pHOs/bj5RRk5lPVazuonIhlaSQ8EoLCrx0z2cky5rzkZqcWNMS+nMy86UrkrioOu5WDO/NZ/5/Nv11Eeimp01v5D4TEUFER03H7ADIZSuhSnkfnHADLjjksL2h5rnEMTed6OT+0ceEoAfHzvRR1MHeu5OfwWhfG7mQY4Wqn14G1ehdftDo39rGfETAc4G7ujxoGBT+1baJP+InP123k8zbHv+fI2e957J47GOnjZjiJmEyIAIhmDH/8vmWVCVN4ZMwdAIy8byIPcNhDu8DuMky/1BAWEEpkHJR3mFtTSWxWNvGTBRzHy1jVjxnt+03z9p2ax8+WzONehVNwAwz1UTI2di2KAfBUEeKy2ZLa1qYpKNToXkwkzhud+M3ntTg1wlAAGcpH4lj3crzzwQQICCNumcYbPfUtIwOZuWELqXObBTeAfHw0qb9P7aWXg9NjInWuun3B3aaKjoxN64if0Sy4wWmPDktYx6b03rnNVR084RT+QToy304mIqCzGj2kR/NDw8wJTpPOiYPdydLeGfdxz50AtZw84Cb0hLt5TJ9Gqi6Ixp/e7+77vNhvTxlGyN1OQXzlm9PNh0Pk+ALXzh3nsFvpkU8sIv13i3iw8d76ymn/A8LIriM2QEaINraTcUQRPtk522Tjo4iL7O519Jzua97n0zjyRuMfM1G8/BpjR3VebcTdgYxoELHt2cRXBytpkM3jnsRl3OcvEDQ1BtvOMqCAU28UcKpF297RsluiJGmWGhkObHvzWfueActFIEBF2Ix5xD3lne9CQa1GsBvJWVJNeGEKWj81Gj8Hlh0ryRNeI1unQDFGC5h60HoiuRUxqDor5kmj7DYKVCHgOG+k5N0cSg46UM5PJetFLXJFGHHPChjf7+Hnw5RlxE2XAyKW3QXo3zNgFZ2eHqlJ0agEB5bty1m+uTHHoUBsZjJaOYjHyynYUIzhuB0EJWHzE0n6pRbF9ARWTDew9gBUZSxqTuaclEvFAlXn92T3Wgoe2EByhAJhfDSpRdEknTay76NCig3WLiTW7Ro9mx9alArAcRLTDi8NBIBgAnwBvudyo9SboGVpqkvgiRa2G0eyMCII34BgoH1vlX5hwmym3QdQy5H/bh7L/ff4A1B/+RvXkWGMTX6J5bogRvITF6r/yoWfzeJBX3/uiYD2Mn2bDp9BjFAgKMYRBtS0O5BKqj+LQjVZwHG8kuJ+9FDpP5t3g51TW+I59WklDQ3AD7v4+u/OB3KEb9v14r7Fv9n1q97GhcbP/osWanbksPyZlfRW3DkRMX2oxyAasH7n6u9kOfoCM2axzis99Bf2zwpZlZhOyUE7IGLdmU7BARGQEfJAVM8blgtOE9zZfbye1+h+J2I15PN6lRWQETja7RUVnMBMtQzOG0h7Jd8puAFEKzXF6by+1wbIUf2iN180Igb9czynL8dsc4pqebCWmJSNlG7LJTlC3ou2W/bT7fkRqSQQoP57LnhpFJ5w11Trv/of9Es28t9XOrOa9xf+LFzxKIHAtS//Skl7CTDdvxqu13J461tk/P5Ep7Z/AAxW5/2VK5jYYUErJasWMWfOHJ7sR5MJ9GcatNN7sZ1rpbOcv0Adylb28/7AxM4aC2ELVCjnrqM0zIqxppLK/6qk5qwXDdCXj7Jvh3t7Do59XEhnebK7RiHL53jnFdM5IicMZW0mZtXZC6ROVyHz8e9503aROkAYPZM3lp1oqXlHKAGoq7c3l394nHNNJEhHdoWu3WblgaH07IvGbWhV+aysykcYrSPuhYVETVUiyFVEp24hdPyqrqXw6ojezI/vrO0pjb1kOAHJKfyuSVP9AP3vjzgX/Rq5PpBC3J8n1r/KY/cAlw6zMeMTz8L4tlCWvv1o81fDus3895GfgOYX77Ub5V3UQ25ZbxNzwXJW5Rmw2AG5Eu3cRNZsKqVi20bW/NJ7W2QdLf66huOylxq+EThV23sTwqE8th8SAQHV3BQ2llZQUVHKxpRoVAJgN1Kc5yaEfYbT357/4lkDhRlLWRS7mvLjDkCGasEKkoN73/aNMz/OcfEKQBBhLTTVZsF9v8L5kr5iPzdAY/TnF/pXnG6Al47w/r9/wOetJuDJb5z2et+fPdryq+FI4wLrvS7zUC0Xq/tz7N7nlk5AbN6dw/LdOQijw4j6lyiiwrQo5UrCEjJQ+LjbWTtCQDYgr8D+tHl7RpgQ6HzJXe9NI1GETxBAtGF1yFE2u45gPVTJ1reKqPH0hujD62oX0UT+b8oYty0WtUxJ6CygCy6DnW8K6gF3KunAZNsDznFZBHxppak2cgf3j3YuEH53diDs3f488dYrzB830iW4i6j5sm2pa7Za6ungq+GJYKfZ6dI3nOyfgfcZg0J4D/mnvm1fPFtDWV4NZXkCmlc3sC5SgWpKFHiyfLe6Y+qkLHRe0MAGH2oSJjudOm3n2jM6do5ycRQaAaw7X2Lpu13Q4w9asS1QoRg9kXiBDl3l2mWIDAF6+dXgoK627VHZ0JYtC7oMEqZ6MdTRARu1gODnzzi8Kby/59PjtTx2jz/Xzn3GX4+0dAUcPmse4fcCnMfs7c3UneI0lTRr3J4FNwA7j3Pm2UncP/wKX1S1Etz488RsNSOB+tPHWrlDtmJGIP4Adhs36j7EG9hscoJrIoDA6HmZ+Ph7a5EIIJHc4o2sS4kh7AFlk4lEGK0hNMBlgW+hTVqwu8aimZ+MNgCnn3H6FrIWqPr9M95JIcvnzGFOZ/+8op0Ox18VhsrlZiUfryP57Uyig2XgsFD9J0+2ZTXxvy+loqKCiu1bSNV5FmCqAOenuOKhJHRTNGjcfg+PHNrHMRsgUxP7Xi4pC8JQdlU2XqxzmimCZ5K1TNdOvQjWFG4jOzUW3RSVm4VUjmpGLBkbYlDLcHp7GJpr1dY5DSDKGalEjxZw+q7n8l6KFm/OXMTDWO0ASlQLvNkwWD80cuoaDJ8wj9/89mHG3jsMGIbvrGj+7UXXzsv/reLPZzzVjiC18CPn7120hnZ+7u4j3N11wQ3AJ/z58PeAP79IWcZ8nb/TxTEgiF9kLmP+fcOAb6j+4EiH3Spdv73DerQDTxNw+nm75nlpLon9GNOq25r3iNnbmTKt9S/TciONd4JUWblktHDtXhXD79Yy6SV3T3kvuA/6KdHoEtHoEtueu26n5r/chZ6V7Z9YiFioQhYSTUaR274rhw3LRTmqmzqqogzVgjXkthEWdkzv51F42kOV6U8R9YBrnoxUEDF3IXpDUZtiVftNJE0PQz5aR8rv2i5AOi5bMX2Uj75p442RvOIqQpMjUAgqdElr0CW1rmWhbM7ytt9NOyo5+JSGMLnLvj43pfmcmxlmuCBHHRGPOiK+nfthx/T+JkrcVPcyw0EWTg5DLteSvKmU5KYzIpaTDlQh3hLhNfztS5Gw6QLjpkbDjvZ9ve//bRop2jvaHPfVLuUPH7n+OFXJr1d87Pz/mY/Z/Gc16fPvI1C7gFRtqx/80mE2Zx32vEAYPBFVkEuNcfmnG/S9WzAG4JeLnIIbYNQkntXredZDsVM7U9H/0fn/L3JKMeY9j3bUfTyRvIonkt1L/sSpnX9ke4cvAHOsMloAABKhSURBVCXzJikABydNZZ0MUMm4Ri1AUBHzUiLFLxV6zZ20I25gzRsaPkvl8H9W8+1FB9e9GkuiGH1OGcbTdhzuK0YOEdvnBvJ/u6RNRDHr5lXod1qwN5a/7sB+uoai119iu3WQL1t3l8ZrX7WE1dvb8bg48CGVjatJopWq3dvbKbcXU+NL2OHAUd9yCU/mp0Sb0DJMp2jQ89yqfAyf2xBbFu+EKta+oqe8w3pV6NflU37Agu1yy0KOejvWQ+XkLPFw3XvXkrnZ2CLSoGgzU65fwnKTB/tKL6jaY8IOCA9Ekehlk913f8zjteyP+eLST81C+lotp6pLyVjWdoGwidNbyd9tbVqAdfqnDxCimT8ue4v3jedp9m78ifpvzPw5OxP9Hzv5PSITmTkaEI+xt8PdlQA1rN9qbBbWdyr7LTRvr0LCStzsdBwWoPcIxGS9R+JkAcfJMla91NJPVhitY9n/SSYiSAa2KlY/p++l89/NgkBs9jbi1TLEgzksft3QL5pepwjJbCyNdm7dP6BnUUbfODP2LWqS87OIDpZh3b2UpXldcVrQkVGcgtYPOFnGIknzlrj5iUI7XgAcHNvXdoODeNZA8Wd2TxVvcURKNhmwOkCYmtDuekL/IaB8OJaMDTqcnvk2jHsGo+AGddIydMFOZaGwC4JbPl5H4u8TnIIbB+bq4n57kQ4KbxOJmx0ZoVGpxHyznX37LdgBAlTo/iWRuEinR4v9y32S1u2OOZ/1u0PJWqBCm5xF4pnlFA5I9NLWLqsOLDveRH9gIMbSOwRdBmkLVMiwYXhTT8c+VI1fpc1H7J/kk1bcf99AkvCWGEDKqDy4EM0MObLRESSujiBxtYdiF2vY+k7P3RFvVswFq8gP2kTKdBUxaWs48czaPtp12QUcIravTFRuXk/JZzeEEad7BCeSlaxF7nr55HT1RXjdgf3rY1R/mM9WL8a96QqS8JYYUKrWLcH+eRIJC8IJCRCaN7Rcd+C4YsO0t5iczVVIxhNPiBgyMgnMTkP75a5ONMW+oj/DNPQhp/+G6WwUmNK6GPagivS4gTUNSQuWEhISEoOQYbfffvtAj0FCQkJCoptI3iYSEhISg5BhV69eHegxSEhISEh0E0nzlpCQkBiESMJbQkJCYhAiCW8JCQmJQYgkvCUkJCQGIZLwlpAYzAREk1HYfrz0GxJ1PNlFuSRPHkRjvgGRdlhKDGoiXt1CSqQC2WUTRatXU+Iptnh/EJlB6avaVokk+ioaowtBR8bbyWjlYP+5FgyDIxiUMlxLSIAK9RtZOFYNVEyWwU/PNO8ALbGrc9lS7MqcUVFBxUelbHl7DbFTvZo3pFtELMtm47aPyG0TnF+iBZHJZG/axkdve0hEMaiIYObPFc5MRn4awh/3cvPBsazJ30Jp0RoivNx071GS+O8uwX0ghyXrBofgBmds/PwDdpA5Y7LcePd2cNB94a1OJHdjBvEzVCj83BKAyQQU48OI/39SBuzHGBeqbk5gK9E+qlDUo+V9kxi3X6li3/9ncyYAuGyi+i9ebj4kFE2wAmH48M7L7k1nUVP6OT3GPs4Cr3whlejxMrAb2frWDRLPu8s4Y7KUn3aAPIykNEl894Rumk2UJK+MQTUSsJspe38TlfvNWEUQRqsJj4pj4c9vsawyEgNK1VvPUfXWQI+inxFiSJ6tQoaIcXM6hsEluV2YyX+nCm22DsXDCaSoq7oeyU8C6LbmHUXoaAAR49aVFO4xN6V9Es+aMWxOZ2nyAIallJC4BVAujkIjgMO8C31f2dP7A3MO2w+JgILwZ6M7LS7Rkh4uWA5HdocAnX2szV1H6TINgsNMyTMrKWpTXCA+exuxahn2/ek8s84tqGVABMkr4ghXK5GPdB0TbZirt7O1oByTCJ4CogOoFlRQ0Sp3qmXHHJYXtOp9ciwrXpzHVKXLhHDdgd16kF3vtoxJnLihgpgQC2WLduH/tist12UjhYl6LryQxYrHVQiIWHZ2NZxk+6jnprDkqXDUCtfS13UH4sWT7NuaSX5Vy8CoznF5vraI9FJSpwtN5xr/bkFIDBUVMS2PuSXi7QnOMdkwJL/EvumpJD+pQekyr4lnjWzfoG8V77nxN3QmDd4ekcwbSTpULvOXw27BsGEV+Z+41UnKpWKBipa0k3TYrbx15yJWmhLIXDKz+f6KVowl60lvzEnpqW0/LakVFaS6H7tsRB+X3nNFpTtjaoGWhOlKQOTYx0Wdm0sEDbEvJxI1Wdls5nTYsR7aR3FeIVUX247J4xxoXJB1O+eN56J8p4m4KWHIH4gklnJKOrqW4FjWrYtH4+fAsmNVr5+1wU43Ne9Kjp0FkKF5dgMZv9TQobPP7jJMFwGZGu3THkoGJxCulgFWqovdBLcQS/bGVKKnuAluAEGBWpdM4tPdG7UnBF0Gm7LiCQt2s/0OlSEPDiM+axMZbVyvZEzMdE1QAD8tUb9Zw4rZKoShwFAB1dwlxPZ8ROjStpG9TNf8ELvGJCjURKduIdctCe+NjQ+hr25iXYK2SXADCKO1xL+RSazHSSNDmbqFLanRTYIbQCZXEf1allcS7Sqmb+C9tOiW91dQon0hk4zI3rffL2OaMhNVAFB/AuPuzlrXkrphnYf1KTnK6TEsW+YNW3Mvn4sDuzDZAFkI0+I66erxcDR+zj5VkXG3/EJnNzVvK/nZJYzLjEUtKNAmrKP0KRvm6l0U/0cZxoutyxvZesBK2FwlKm0CyoJ83LPCKedqUAIOczVb3Vy8lC9EoR4JjvNV5L9ZgOG4HZCjmjGTeU8tZExTJvmWAdE70kRbIMSSmaxFjohldwE5/2nAchGE0WHMeyGJ2OkKtL9agdaw1i3AvRK12oFlx0pWDV1B6XwlyikasBvJecXEzI2JaEYqCY0EevIpO3cNSQ/LAQe2AyXk55VgvAjyqTEkPR9PRLAM1dwlxH/g6Qumc6oyFjVriR1pWF5BQBkiwGUL5Vv0bDVYkU1N5o010ahkaua9rKVkXevUAUq0ETjrbM2heI8Fx+RY1qyOR+OnIny+ksJ3XLOnYDlzmn7f1mm42kemUCBz/eb69wzUyqNJfTMZrVxAo4uBvWUt227UNnurZfd2TO5MVaIAHF+ZKPPYohsLYghTAJdNFL2Tz65PrIgIKB8IJ+rphWgdnTXQFXr7XJg4bBWJUAgoxoUBNe139ZdqTJEqp+a9t/iWN89239vEXMTKxasp2m/Ffh2XNpxIxpZSNqbHommlVVl3m5wCe7SWhS20JyULp3j+/PO/zfUfRx22842mAjuW/WXkvPIMKzd3e9QtUC6eiVoGNkMay/OcghtAPFtDScbrVJ0HAlTMnNKq4vkq8grMiF9ecI3XtWB0sRZHLx+E2FmhCIB4MJ+XMkqaXoT2g2Xok3Oc3gvtfcHcgDjOGlibuJx8V2oo+8F8Vu22ACBXhbsS1bbE/lkhK+OWk7/HmcdS/KyESrPzTvvIuyKeO8OOMWcxy/MMWEUQz5aj3+98Ich8/L3Qft+PKSIoEIBrly903vRtI5r+W3fc2jRnrZ8bKPztUpZ6y72wl8+Fweq8FnnAxI4Lni5hddwc5sx58pY3mUBPbd6iiZJ1SylBjnZBAnELIlAHCCinx7NuUyg5S9xWwE9vpdqsI1atQBunhUaNa3oC2iDg8lEqW33+mXZWYwmLQRUczbqScKwHq6k07KLyE+/kiAtXOZPaKnTZVOjaKyUnUA0caj5iPVjQMsP5+WoKvbJgFEHoPTLAhnGHJ7evKiqPJqF9WE5gkBYGgc5hNeZQ0+pCRLMNOyrkghwV0DI3t8gJQ1mbDPItvhh6y8l9pLdyzXAKHGXH5r++pIdjunC+C3dl5x5M0Wq0cg3JW0pZaDZS+fF2Kl0vR2/htedi0Luu9i+93B5vx7gjh5XxT/JMntGpicu1JP3GfeVYpOjjY4iAPDQKreuoNjIUOWD/rLztw2kuZPmqfKe5ZKgc5fRoEtM2UrprGxtXt9Xuu4uPrGe+4I7rraTRD3WtBFBPGYe/H0AdtYc8l6i5UOuVngaU/Re4Ca5i8CAaSF+ylpJDTnOJ4oEI4l/OZduuUrb8PpmIAO9003fPhURHeG17vH13OjmTt5ExQ44Q/CBhlDdbr3aXYfqlhrAADTFzwbg7gujJctosVLpjLifnlXJyBCVhunlEPR6ONliOckY8GYE+LH+lsNcTpFPbeL9xhtrLoPLzwX8KLbT9RsICu/dZf0NuwNEpCQRouIZXzK23MIFBEXTpC0ysoei3NRQhRzU7ioWzotCqFSgeiCb1bX/oasb5/gikcb0f+riJ6JvAVPWt37zOhUsQGBcWDXOjmOjXdqHSI6KVmh35pCc/w6JVVdgA2XgNUR1UkQ3tWDU3nrEBoAyNH7jP5RYcwy4CKNDM1rY9LeiImuhczLR+2fZRa329gi6DhKlduLIhsn68fgHdIxMRAIftREfLUjckN8q+XaPN+e0i+I/rZk07lj0l6P/tORY9V4S5HpBrmOnJo6X1vBB0ZCS0jtviPRoVE/vFo33Uw81J94R3Ui6l+RkkLwhDPbr5pxRGq9EtyyV1hjOuie3L6jZasfW9aswOEB6IYt2sUIQO/FQT3y5l4+9SiJmhRtnYjaBE84Acnw6GV1vn1OeUs7JI1rVvMzT99ZjzJaCO5b23U4h5uG9tnupnsyndVUFFxUdsSdV56MvK9gMWHIB8xm/ZmKJzuoMB8qmxZGxIdvqyXzaxs7i5VtP1zkglerQAyIlYlst7KVo6jDBzsc6p+QbPJGuZrvked4SgI7XQFcumOJv4TrwW/QN1TXNEGB1GbPoGkqcKgJ2D5R168944nLRTB+CnIe6NWLReMjP0BvFzq9NePVpFTCdlI9K2sO3tDBJna5rmE8hRTR2DfCiAg2vuG6Kb5kU4qfOdz4Q8Ipnc91LQ9lnIIiXT7nMqJmeOdPJKD45lXbEzllLp24kMFsfZvqLbH0NCsJboJC3R7QR/cpw1UJDnwRQiFrH383mop6jQqIGLBylrz091qIByio7EKTo8hU6y79/ucTNGmeEgCyeHIRdURKdsJDql+VwLE8mBPIqrQkmOUCCM15GY5qEfr7nRaXnqcbXT5xUZihnzWKg3UNSqlLUgj3JNFjEhMpS6FHJ1KS0LOGxUbdG3+MRtul65luRNpSQ3nRGxnHSgCmnnidtRycGnNITJBVRzU9g4162v9q77qXluvrxqohZoKWrj7teM/OEUsh9udQ04sO7JY30vF3kbXUJboiKmoqJJoHnFJHZ6O9XHI4gZL0MxNZ6Movjmc63cBz1ugkJA+2oFFa86/xIP6FmU0cvl1/1/40RyGFq/cWjn0v4zBDDEB/l4LTHjtR4FveP4PrbudzvQNC/kaF/cSOmLzafE4xYc41UdKwU9IXgeoUGA4ySmHZ2UVY5jjGtDnjA+hmVJxSwvGJSxAbxC9zTvgtfRv1+F6ay9pQvQdQeizULN++k8t6Stl0Ej5TtNTavctiO7aO/RL87KoeyAFXu9WyfXHYg2M4Z3V7cfQW3vWl7Sl2O2iTg6tJ+JGPTPsSrP0IWyvcXIh38xI14HrotY9+9iu8dyZgpfeg79bjO2y27X7RCxfV6OPvE59K2DWOxdS+ZmY1OIAgDRZqZcv4Tlpo6WBqtY+4qe8s9tiF01Pn+4i6rzrsJ2M5U72hfcbXD9duX651j6Ts0gCqJkpfA36U632PqBHksjVZR/ZgcEQp9I9Ohy2VQyT0+hodV8Ahx2K8btep5rs25UxdrMQoxnW0wozLv1LHnF1CeLzREJM1EC4ud7O95dCbB/PVsPNo/N6Xl16/JPY8aM+b/91tv0NWxLD0OOlfLkpeQPVOxliT6jyxulJHqOEEv2tnjUMhFjzuI2roaDBnUyG7OiUcq6IQ90GZSmOO3vlh2LJM27f1CTkhSGHBA/q+x8oVJCQsIzYgmb9lhxIKBNSGUwJdFpRk3iSzqUMrBVFXZBcMtRzU4ku3Hh1GGm+oNbV3BDPwlvYbSOlPwsdEGAw0Llu2WD6NNZQuLGw/zuespPOkCuJfnNwbZ4J6BLTyMmRAbnDbyp78QEF5lBacU2cl+OQS0HrtupyU+j5BYXIn3qvdl2EceOMX8VhZLWLSHRS8wUvpaPclMK2pAY0tJO8Ezmjb/zFkD5QhbJ0+XgsFD2Vk6bXbXtUm/Haq5m+x+2Yjh7i0tu+iuHZWNY001pLUN7SkhI9BzRQHpmINm/0XLiv7qxgDzAWKtNWB8DU0YX81fuTWfRYI5b3kf074KlhISEhIRX6McFSwkJCQkJbyEJbwkJCYlBiCS8JSQkJAYhkvCWkJCQGIRIwltCQkJiECIJbwkJCYlBiCS8JSQkJAYh/z+pCj34RD4bBAAAAABJRU5ErkJggg==;rounded=0;" parent="1" vertex="1">
                    <mxGeometry x="-0.42" y="190" width="270.42" height="70" as="geometry"/>
                </mxCell>
                <mxCell id="10" value="main栈 &lt;font color=&quot;#000000&quot;&gt;(1)&lt;/font&gt;" style="rounded=0;whiteSpace=wrap;html=1;fontFamily=Verdana;fontSize=15;strokeColor=#543B27;fillColor=#B266FF;verticalAlign=top;align=left;fontColor=#ffffff;" parent="1" vertex="1">
                    <mxGeometry x="315" y="470" width="240" height="130" as="geometry"/>
                </mxCell>
                <mxCell id="12" value="Person p = new..." style="rounded=0;whiteSpace=wrap;html=1;fontFamily=Verdana;fontSize=15;strokeColor=#543B27;fillColor=#B266FF;align=left;" parent="1" vertex="1">
                    <mxGeometry x="320" y="500" width="230" height="27" as="geometry"/>
                </mxCell>
                <mxCell id="14" value="&lt;h2&gt;堆&lt;/h2&gt;" style="rounded=0;whiteSpace=wrap;html=1;fillColor=#647687;strokeColor=#0F0F0F;fontColor=#ffffff;align=center;labelPosition=center;verticalLabelPosition=middle;verticalAlign=top;" parent="1" vertex="1">
                    <mxGeometry x="580" y="190" width="430" height="230" as="geometry"/>
                </mxCell>
                <mxCell id="15" value="对象 &lt;font color=&quot;#000000&quot;&gt;(2)&lt;/font&gt;" style="rounded=0;whiteSpace=wrap;html=1;fontFamily=Verdana;fontSize=15;strokeColor=#006EAF;fillColor=#1ba1e2;verticalAlign=top;align=left;fontColor=#ffffff;" parent="1" vertex="1">
                    <mxGeometry x="600" y="240" width="240" height="160" as="geometry"/>
                </mxCell>
                <mxCell id="21" value="int sum = p.getSum(10,20)" style="rounded=0;whiteSpace=wrap;html=1;fontFamily=Verdana;fontSize=15;strokeColor=#543B27;fillColor=#B266FF;align=left;" parent="1" vertex="1">
                    <mxGeometry x="320" y="530" width="230" height="25" as="geometry"/>
                </mxCell>
                <mxCell id="26" value="getSum栈(独立空间) &lt;font color=&quot;#000000&quot;&gt;(3)&lt;/font&gt;&lt;br&gt;a -&amp;gt; 10&lt;br&gt;b -&amp;gt; 20&lt;br&gt;res -&amp;gt; 30" style="rounded=0;whiteSpace=wrap;html=1;fontFamily=Verdana;fontSize=15;strokeColor=#543B27;fillColor=#FFB366;verticalAlign=top;align=left;fontColor=#ffffff;" parent="1" vertex="1">
                    <mxGeometry x="315" y="330" width="240" height="125" as="geometry"/>
                </mxCell>
                <mxCell id="29" style="edgeStyle=orthogonalEdgeStyle;html=1;exitX=1;exitY=0.5;exitDx=0;exitDy=0;entryX=0.002;entryY=0.091;entryDx=0;entryDy=0;entryPerimeter=0;fontFamily=Verdana;fontSize=15;rounded=0;curved=1;spacing=2;startSize=6;strokeColor=default;strokeWidth=3;" parent="1" source="12" target="15" edge="1">
                    <mxGeometry relative="1" as="geometry">
                        <Array as="points">
                            <mxPoint x="570" y="513"/>
                            <mxPoint x="570" y="255"/>
                        </Array>
                    </mxGeometry>
                </mxCell>
                <mxCell id="31" value="&lt;h2&gt;方法区&lt;/h2&gt;" style="rounded=0;whiteSpace=wrap;html=1;fillColor=#647687;strokeColor=#0F0F0F;fontColor=#ffffff;align=center;labelPosition=center;verticalLabelPosition=middle;verticalAlign=top;" parent="1" vertex="1">
                    <mxGeometry x="580" y="440" width="430" height="170" as="geometry"/>
                </mxCell>
                <mxCell id="33" style="edgeStyle=orthogonalEdgeStyle;html=1;entryX=1;entryY=0.5;entryDx=0;entryDy=0;rounded=0;curved=1;strokeWidth=3;" parent="1" source="32" target="21" edge="1">
                    <mxGeometry relative="1" as="geometry">
                        <Array as="points">
                            <mxPoint x="433" y="470"/>
                            <mxPoint x="580" y="470"/>
                            <mxPoint x="580" y="542"/>
                            <mxPoint x="560" y="542"/>
                        </Array>
                    </mxGeometry>
                </mxCell>
                <mxCell id="32" value="&lt;font style=&quot;font-size: 14px&quot;&gt;return res; 返回后，栈空间被释放&lt;/font&gt;" style="rounded=0;whiteSpace=wrap;html=1;fontFamily=Verdana;fontSize=15;strokeColor=#543B27;fillColor=#B266FF;align=left;" parent="1" vertex="1">
                    <mxGeometry x="320" y="410" width="230" height="30" as="geometry"/>
                </mxCell>
                <mxCell id="36" value="&lt;font color=&quot;#000000&quot;&gt;&lt;span style=&quot;font-size: 18px&quot;&gt;方法调用小结&lt;/span&gt;&lt;br&gt;&lt;/font&gt;&lt;div style=&quot;font-weight: normal ; font-size: 18px ; line-height: 24px&quot;&gt;&lt;div&gt;&lt;font color=&quot;#000000&quot;&gt;1. 当程序执行到方法时，就会开辟一个独立的空间(栈空间)&lt;/font&gt;&lt;/div&gt;&lt;div&gt;&lt;font color=&quot;#000000&quot;&gt;2. 当方法执行完毕，或者执行到return语句时，就会返回&lt;/font&gt;&lt;/div&gt;&lt;div&gt;&lt;font color=&quot;#000000&quot;&gt;3. 返回到调用方法的地方&lt;/font&gt;&lt;/div&gt;&lt;div&gt;&lt;font color=&quot;#000000&quot;&gt;4. 返回后，继续执行方法后面的代码&lt;/font&gt;&lt;/div&gt;&lt;div&gt;&lt;font color=&quot;#000000&quot;&gt;5. 当主方法(栈)执行完毕，程序退出&lt;/font&gt;&lt;/div&gt;&lt;/div&gt;&lt;font color=&quot;#fff7f7&quot;&gt;&lt;br&gt;&lt;/font&gt;" style="rounded=1;whiteSpace=wrap;html=1;fontFamily=Verdana;fontSize=15;strokeColor=#543B27;fillColor=#FFB366;verticalAlign=top;align=left;fontColor=#ffffff;glass=0;shadow=0;sketch=0;spacingLeft=9;spacingRight=9;spacingTop=2;spacingBottom=2;" parent="1" vertex="1">
                    <mxGeometry y="390" width="270" height="250" as="geometry"/>
                </mxCell>
                <mxCell id="27" style="edgeStyle=orthogonalEdgeStyle;html=1;fontFamily=Verdana;fontSize=15;rounded=0;curved=1;strokeWidth=3;exitX=0;exitY=0.5;exitDx=0;exitDy=0;" parent="1" source="21" edge="1">
                    <mxGeometry relative="1" as="geometry">
                        <Array as="points">
                            <mxPoint x="260" y="542"/>
                            <mxPoint x="260" y="388"/>
                        </Array>
                        <mxPoint x="320" y="388" as="targetPoint"/>
                    </mxGeometry>
                </mxCell>
                <mxCell id="54" value="System.out.println(sum)" style="rounded=0;whiteSpace=wrap;html=1;fontFamily=Verdana;fontSize=15;strokeColor=#543B27;fillColor=#B266FF;align=left;" parent="1" vertex="1">
                    <mxGeometry x="320" y="560" width="230" height="30" as="geometry"/>
                </mxCell>
            </root>
        </mxGraphModel>
    </diagram>
</mxfile>